<svg width="61" height="69" viewBox="0 0 61 69" fill="none" xmlns="http://www.w3.org/2000/svg">
<circle cx="2.5" cy="2.5" r="2.5" fill="#41B4AE" fill-opacity="0.5"/>
<circle cx="2.5" cy="10.5" r="2.5" fill="#41B4AE" fill-opacity="0.5"/>
<circle cx="2.5" cy="18.5" r="2.5" fill="#41B4AE" fill-opacity="0.5"/>
<circle cx="2.5" cy="26.5" r="2.5" fill="#41B4AE" fill-opacity="0.5"/>
<circle cx="2.5" cy="34.5" r="2.5" fill="#41B4AE" fill-opacity="0.5"/>
<circle cx="2.5" cy="42.5" r="2.5" fill="#41B4AE" fill-opacity="0.5"/>
<circle cx="2.5" cy="50.5" r="2.5" fill="#41B4AE" fill-opacity="0.5"/>
<circle cx="2.5" cy="58.5" r="2.5" fill="#41B4AE" fill-opacity="0.5"/>
<circle cx="2.5" cy="66.5" r="2.5" fill="#41B4AE" fill-opacity="0.5"/>
<circle cx="9.5" cy="2.5" r="2.5" fill="#41B4AE" fill-opacity="0.5"/>
<circle cx="9.5" cy="10.5" r="2.5" fill="#41B4AE" fill-opacity="0.5"/>
<circle cx="9.5" cy="18.5" r="2.5" fill="#41B4AE" fill-opacity="0.5"/>
<circle cx="9.5" cy="26.5" r="2.5" fill="#41B4AE" fill-opacity="0.5"/>
<circle cx="9.5" cy="34.5" r="2.5" fill="#41B4AE" fill-opacity="0.5"/>
<circle cx="9.5" cy="42.5" r="2.5" fill="#41B4AE" fill-opacity="0.5"/>
<circle cx="9.5" cy="50.5" r="2.5" fill="#41B4AE" fill-opacity="0.5"/>
<circle cx="9.5" cy="58.5" r="2.5" fill="#41B4AE" fill-opacity="0.5"/>
<circle cx="9.5" cy="66.5" r="2.5" fill="#41B4AE" fill-opacity="0.5"/>
<circle cx="16.5" cy="2.5" r="2.5" fill="#41B4AE" fill-opacity="0.5"/>
<circle cx="16.5" cy="10.5" r="2.5" fill="#41B4AE" fill-opacity="0.5"/>
<circle cx="16.5" cy="18.5" r="2.5" fill="#41B4AE" fill-opacity="0.5"/>
<circle cx="16.5" cy="26.5" r="2.5" fill="#41B4AE" fill-opacity="0.5"/>
<circle cx="16.5" cy="34.5" r="2.5" fill="#41B4AE" fill-opacity="0.5"/>
<circle cx="16.5" cy="42.5" r="2.5" fill="#41B4AE" fill-opacity="0.5"/>
<circle cx="16.5" cy="50.5" r="2.5" fill="#41B4AE" fill-opacity="0.5"/>
<circle cx="16.5" cy="58.5" r="2.5" fill="#41B4AE" fill-opacity="0.5"/>
<circle cx="16.5" cy="66.5" r="2.5" fill="#41B4AE" fill-opacity="0.5"/>
<circle cx="23.5" cy="2.5" r="2.5" fill="#41B4AE" fill-opacity="0.5"/>
<circle cx="23.5" cy="10.5" r="2.5" fill="#41B4AE" fill-opacity="0.5"/>
<circle cx="23.5" cy="18.5" r="2.5" fill="#41B4AE" fill-opacity="0.5"/>
<circle cx="23.5" cy="26.5" r="2.5" fill="#41B4AE" fill-opacity="0.5"/>
<circle cx="23.5" cy="34.5" r="2.5" fill="#41B4AE" fill-opacity="0.5"/>
<circle cx="23.5" cy="42.5" r="2.5" fill="#41B4AE" fill-opacity="0.5"/>
<circle cx="23.5" cy="50.5" r="2.5" fill="#41B4AE" fill-opacity="0.5"/>
<circle cx="23.5" cy="58.5" r="2.5" fill="#41B4AE" fill-opacity="0.5"/>
<circle cx="23.5" cy="66.5" r="2.5" fill="#41B4AE" fill-opacity="0.5"/>
<circle cx="30.5" cy="2.5" r="2.5" fill="#41B4AE" fill-opacity="0.5"/>
<circle cx="30.5" cy="10.5" r="2.5" fill="#41B4AE" fill-opacity="0.5"/>
<circle cx="30.5" cy="18.5" r="2.5" fill="#41B4AE" fill-opacity="0.5"/>
<circle cx="30.5" cy="26.5" r="2.5" fill="#41B4AE" fill-opacity="0.5"/>
<circle cx="30.5" cy="34.5" r="2.5" fill="#41B4AE" fill-opacity="0.5"/>
<circle cx="30.5" cy="42.5" r="2.5" fill="#41B4AE" fill-opacity="0.5"/>
<circle cx="30.5" cy="50.5" r="2.5" fill="#41B4AE" fill-opacity="0.5"/>
<circle cx="30.5" cy="58.5" r="2.5" fill="#41B4AE" fill-opacity="0.5"/>
<circle cx="30.5" cy="66.5" r="2.5" fill="#41B4AE" fill-opacity="0.5"/>
<circle cx="37.5" cy="2.5" r="2.5" fill="#41B4AE" fill-opacity="0.5"/>
<circle cx="37.5" cy="10.5" r="2.5" fill="#41B4AE" fill-opacity="0.5"/>
<circle cx="37.5" cy="18.5" r="2.5" fill="#41B4AE" fill-opacity="0.5"/>
<circle cx="37.5" cy="26.5" r="2.5" fill="#41B4AE" fill-opacity="0.5"/>
<circle cx="37.5" cy="34.5" r="2.5" fill="#41B4AE" fill-opacity="0.5"/>
<circle cx="37.5" cy="42.5" r="2.5" fill="#41B4AE" fill-opacity="0.5"/>
<circle cx="37.5" cy="50.5" r="2.5" fill="#41B4AE" fill-opacity="0.5"/>
<circle cx="37.5" cy="58.5" r="2.5" fill="#41B4AE" fill-opacity="0.5"/>
<circle cx="37.5" cy="66.5" r="2.5" fill="#41B4AE" fill-opacity="0.5"/>
<circle cx="44.5" cy="2.5" r="2.5" fill="#41B4AE" fill-opacity="0.5"/>
<circle cx="44.5" cy="10.5" r="2.5" fill="#41B4AE" fill-opacity="0.5"/>
<circle cx="44.5" cy="18.5" r="2.5" fill="#41B4AE" fill-opacity="0.5"/>
<circle cx="44.5" cy="26.5" r="2.5" fill="#41B4AE" fill-opacity="0.5"/>
<circle cx="44.5" cy="34.5" r="2.5" fill="#41B4AE" fill-opacity="0.5"/>
<circle cx="44.5" cy="42.5" r="2.5" fill="#41B4AE" fill-opacity="0.5"/>
<circle cx="44.5" cy="50.5" r="2.5" fill="#41B4AE" fill-opacity="0.5"/>
<circle cx="44.5" cy="58.5" r="2.5" fill="#41B4AE" fill-opacity="0.5"/>
<circle cx="44.5" cy="66.5" r="2.5" fill="#41B4AE" fill-opacity="0.5"/>
<circle cx="51.5" cy="2.5" r="2.5" fill="#41B4AE" fill-opacity="0.5"/>
<circle cx="51.5" cy="10.5" r="2.5" fill="#41B4AE" fill-opacity="0.5"/>
<circle cx="51.5" cy="18.5" r="2.5" fill="#41B4AE" fill-opacity="0.5"/>
<circle cx="51.5" cy="26.5" r="2.5" fill="#41B4AE" fill-opacity="0.5"/>
<circle cx="51.5" cy="34.5" r="2.5" fill="#41B4AE" fill-opacity="0.5"/>
<circle cx="51.5" cy="42.5" r="2.5" fill="#41B4AE" fill-opacity="0.5"/>
<circle cx="51.5" cy="50.5" r="2.5" fill="#41B4AE" fill-opacity="0.5"/>
<circle cx="51.5" cy="58.5" r="2.5" fill="#41B4AE" fill-opacity="0.5"/>
<circle cx="51.5" cy="66.5" r="2.5" fill="#41B4AE" fill-opacity="0.5"/>
<circle cx="58.5" cy="2.5" r="2.5" fill="#41B4AE" fill-opacity="0.5"/>
<circle cx="58.5" cy="10.5" r="2.5" fill="#41B4AE" fill-opacity="0.5"/>
<circle cx="58.5" cy="18.5" r="2.5" fill="#41B4AE" fill-opacity="0.5"/>
<circle cx="58.5" cy="26.5" r="2.5" fill="#41B4AE" fill-opacity="0.5"/>
<circle cx="58.5" cy="34.5" r="2.5" fill="#41B4AE" fill-opacity="0.5"/>
<circle cx="58.5" cy="42.5" r="2.5" fill="#41B4AE" fill-opacity="0.5"/>
<circle cx="58.5" cy="50.5" r="2.5" fill="#41B4AE" fill-opacity="0.5"/>
<circle cx="58.5" cy="58.5" r="2.5" fill="#41B4AE" fill-opacity="0.5"/>
<circle cx="58.5" cy="66.5" r="2.5" fill="#41B4AE" fill-opacity="0.5"/>
</svg>
