<svg width="1440" height="321" viewBox="0 0 1440 321" fill="none" xmlns="http://www.w3.org/2000/svg">
<path d="M0 256.362L30 229.662C60 203.362 120 149.362 180 133.662C240 117.362 300 139.362 360 160.362C420 181.362 480 203.362 540 197.662C600 192.362 660 160.362 720 160.362C780 160.362 840 192.362 900 219.062C960 245.362 1020 267.362 1080 245.662C1140 224.362 1200 160.362 1260 139.062C1320 117.362 1380 139.362 1410 149.662L1440 160.362V320.362H1410C1380 320.362 1320 320.362 1260 320.362C1200 320.362 1140 320.362 1080 320.362C1020 320.362 960 320.362 900 320.362C840 320.362 780 320.362 720 320.362C660 320.362 600 320.362 540 320.362C480 320.362 420 320.362 360 320.362C300 320.362 240 320.362 180 320.362C120 320.362 60 320.362 30 320.362H0V256.362Z" fill="white" fill-opacity="0.3"/>
<path d="M0 160.308L30 155.018C60 149.329 120 139.348 180 155.018C240 171.287 300 213.206 360 202.926C420 192.246 480 128.37 540 101.721C600 75.4715 660 85.4523 720 107.111C780 128.37 840 160.308 900 197.536C960 235.164 1020 277.083 1080 261.413C1140 245.144 1200 171.287 1260 160.308C1320 149.329 1380 203.225 1410 229.475L1440 256.123V320H1410C1380 320 1320 320 1260 320C1200 320 1140 320 1080 320C1020 320 960 320 900 320C840 320 780 320 720 320C660 320 600 320 540 320C480 320 420 320 360 320C300 320 240 320 180 320C120 320 60 320 30 320H0V160.308Z" fill="white" fill-opacity="0.3"/>
<path d="M0 96L30 128C60 160 120 224 180 229.3C240 235 300 181 360 154.7C420 128 480 128 540 122.7C600 117 660 107 720 106.7C780 107 840 117 900 112C960 107 1020 85 1080 96C1140 107 1200 149 1260 138.7C1320 128 1380 64 1410 32L1440 0V320H1410C1380 320 1320 320 1260 320C1200 320 1140 320 1080 320C1020 320 960 320 900 320C840 320 780 320 720 320C660 320 600 320 540 320C480 320 420 320 360 320C300 320 240 320 180 320C120 320 60 320 30 320H0V96Z" fill="white" fill-opacity="0.3"/>
</svg>
